<svg xmlns="http://www.w3.org/2000/svg" width="138" height="25" viewBox="0 0 138 25" fill="none">
<g clip-path="url(#clip0_187_3877)">
<path d="M94.6701 20.3206C93.449 20.3206 92.5966 20.0748 92.1129 19.5806C91.6266 19.0891 91.3862 18.3174 91.3862 17.2682V10.783C91.3862 10.561 91.5678 10.3813 91.7923 10.3813H97.2032C97.4062 10.3813 97.5746 10.2175 97.5746 10.014V6.32215C97.5746 6.11866 97.4089 5.95481 97.2032 5.95481H91.6721C91.4449 5.95481 91.2632 5.77246 91.2659 5.54783L91.3193 0.31792C91.3193 0.0932896 91.0895 -0.0626301 90.8785 0.0245792L86.5658 1.81105C86.4482 1.86126 86.3707 1.9749 86.3707 2.10175L86.3868 5.55048C86.3868 5.77246 86.2051 5.95481 85.9806 5.95481H84.2572C84.0514 5.95481 83.8857 6.11866 83.8857 6.32215V10.014C83.8857 10.2175 84.0514 10.3813 84.2572 10.3813H85.9245C86.149 10.3813 86.3307 10.561 86.3307 10.783V18.0161C86.3307 19.4723 86.5498 20.7011 86.988 21.6974C87.4262 22.6964 88.1396 23.4416 89.1283 23.9331C90.1169 24.4247 91.4396 24.6705 93.0989 24.6705C94.0822 24.6705 95.0014 24.5859 95.8565 24.4141C96.7142 24.2423 97.473 24.0071 98.1357 23.7059L98.5739 19.4908C98.0155 19.7392 97.4062 19.94 96.7436 20.0906C96.0782 20.2413 95.3889 20.3179 94.6728 20.3179L94.6701 20.3206Z" fill="#612CB5"/>
<path d="M60.316 7.12133C58.2639 5.41414 55.2952 4.56055 51.4074 4.56055C47.5196 4.56055 44.5643 5.41414 42.5095 7.12133C40.4521 8.82852 39.4233 11.244 39.4233 14.3676V15.2344C39.4233 18.3713 40.4494 20.7841 42.4989 22.4702C44.551 24.1562 47.5196 24.9992 51.4074 24.9992C55.2952 24.9992 58.2665 24.1562 60.316 22.4702C62.3654 20.7841 63.3915 18.3713 63.3915 15.2344V14.3676C63.3915 11.244 62.3654 8.82852 60.316 7.12133ZM56.682 15.2899C56.682 16.7725 56.2171 17.9168 55.2872 18.7175C54.3574 19.5183 53.0641 19.9173 51.4048 19.9173C49.7454 19.9173 48.4388 19.5183 47.5223 18.7175C46.6058 17.9168 46.1489 16.7751 46.1489 15.2899V14.3068C46.1489 12.8111 46.6058 11.6615 47.5223 10.8608C48.4388 10.06 49.724 9.66097 51.3834 9.66097C53.0427 9.66097 54.3734 10.0627 55.2952 10.8608C56.2171 11.6615 56.6794 12.8111 56.6794 14.3068V15.2899H56.682Z" fill="#612CB5"/>
<path d="M31.2201 5.28711H24.8045L21.6088 6.63225V6.56089C21.6088 5.85793 21.0316 5.28711 20.3208 5.28711H9.92127L6.63467 6.66924V5.8685C6.63467 5.55931 6.31669 5.35053 6.03079 5.46946L0.269876 7.84525C0.106881 7.91132 0 8.06988 0 8.2443V24.2855H6.63467V12.9298L13.8732 9.86956C14.4156 9.63965 15.0195 10.0334 15.0195 10.6174V24.2855H21.6061V12.8928L28.7565 9.8722C29.2989 9.64229 29.9001 10.0361 29.9001 10.6201V24.2882H36.4867V10.5012C36.4867 7.62326 34.1273 5.28975 31.2174 5.28975L31.2201 5.28711Z" fill="#612CB5"/>
<path d="M133.58 5.39913H128.362L125.102 6.77069V5.92767C125.102 5.60526 124.771 5.38591 124.471 5.51012L120.747 7.03496C120.576 7.10367 120.463 7.27016 120.463 7.45251V24.3975H125.102V11.2633L132.381 8.18718C133.153 7.86213 134.008 8.41974 134.008 9.24955V24.3949H138V9.77016C138 7.35473 136.02 5.39648 133.578 5.39648L133.58 5.39913Z" fill="#612CB5"/>
<path d="M79.4262 13.9424C78.4242 13.4905 77.1069 13.0862 75.4743 12.732C74.3734 12.4836 73.5237 12.2484 72.9251 12.0317C72.3293 11.815 71.9204 11.5825 71.7013 11.334C71.4822 11.0856 71.3727 10.7817 71.3727 10.4276V10.3483C71.3727 10.0206 71.4689 9.74577 71.6613 9.52114C71.8536 9.29915 72.1877 9.12738 72.6659 9.00846C73.1442 8.88953 73.7882 8.8314 74.5978 8.8314C75.9125 8.8314 77.1523 8.97146 78.32 9.25423C78.9773 9.41279 79.5865 9.60307 80.161 9.8092C80.3881 9.89112 80.6259 9.72727 80.6259 9.48943V6.02484C80.6259 5.88478 80.5458 5.76057 80.4175 5.70507C79.7308 5.41702 78.9292 5.15803 78.002 4.9334C76.8076 4.64535 75.4475 4.5 73.9218 4.5C71.2952 4.5 69.3072 4.9704 67.9605 5.90856C66.6138 6.84672 65.9404 8.25529 65.9404 10.1316V10.2902C65.9404 11.342 66.1462 12.2378 66.5577 12.9778C66.9692 13.7178 67.6505 14.3494 68.5991 14.8673C69.5477 15.3853 70.8383 15.8293 72.4709 16.1966C73.6118 16.4609 74.499 16.6934 75.1296 16.8969C75.7602 17.1004 76.1984 17.3303 76.4442 17.5867C76.69 17.843 76.8129 18.1681 76.8129 18.5618V18.6596C76.8129 19.2384 76.5511 19.6665 76.0274 19.9493C75.5036 20.232 74.6299 20.3721 73.4088 20.3721C71.9605 20.3721 70.6245 20.2003 69.398 19.8594C68.5483 19.6216 67.7628 19.3599 67.0199 19.0772C66.7928 18.99 66.5523 19.1538 66.5523 19.3969V23.1998C66.5523 23.3425 66.6352 23.4693 66.7688 23.5222C67.5811 23.8367 68.5483 24.1221 69.6652 24.3784C70.8997 24.6612 72.2945 24.8013 73.847 24.8013C76.7141 24.8013 78.8437 24.2992 80.2385 23.2949C81.6306 22.2907 82.328 20.7711 82.328 18.7363V18.5381C82.328 17.3568 82.0956 16.408 81.6306 15.6945C81.1657 14.9783 80.4336 14.3943 79.4315 13.9424H79.4262Z" fill="#612CB5"/>
<path d="M114.344 5.53559C113.064 4.85906 111.467 4.52344 109.556 4.52344C106.716 4.52344 104.557 5.28189 103.076 6.79616C101.596 8.31308 100.856 10.4616 100.856 13.2444V16.08C100.856 18.9024 101.65 21.0615 103.234 22.5573C104.819 24.053 107.226 24.8036 110.451 24.8036C111.883 24.8036 113.193 24.6529 114.374 24.349C115.52 24.0557 117.011 23.6672 117.882 23.1889V19.7269C117.032 20.1233 115.667 20.4616 114.732 20.7047C113.631 20.9928 112.463 21.1381 111.229 21.1381C110.128 21.1381 109.195 21.0298 108.431 20.8131C107.667 20.5964 107.055 20.2845 106.59 19.8776C106.125 19.4706 105.791 18.9949 105.585 18.4505C105.38 17.9061 105.278 17.2983 105.278 16.6297V16.3337H117.96C118.026 15.9003 118.08 15.4484 118.12 14.9753C118.16 14.5023 118.179 14.0372 118.179 13.5773V12.8691C118.179 11.1487 117.861 9.66614 117.222 8.41879C116.586 7.17143 115.627 6.20948 114.344 5.53295V5.53559ZM113.634 12.6365L105.524 12.7105C105.366 12.7105 105.235 12.5784 105.241 12.4225C105.284 11.0536 105.636 9.9912 106.302 9.23538C107.012 8.42936 108.097 8.02502 109.556 8.02502C110.539 8.02502 111.352 8.20473 111.996 8.56678C112.64 8.92619 113.121 9.44944 113.439 10.1313C113.727 10.747 113.885 11.487 113.912 12.3485C113.917 12.5018 113.789 12.6339 113.634 12.6339V12.6365Z" fill="#612CB5"/>
</g>
<defs>
<clipPath id="clip0_187_3877">
<rect width="138" height="25" fill="white"/>
</clipPath>
</defs>
</svg>
