<svg xmlns:xlink="http://www.w3.org/1999/xlink" xmlns="http://www.w3.org/2000/svg" width="158.361" height="43.415" viewBox="0 0 158.361 43.415"><path data-name="Path 123" d="M113.001 35.981c-1.73 0-2.525-.557-2.525-1.81 0-1.233 1.173-1.889 3.6-1.889h3.341a4.141 4.141 0 0 1-4.415 3.7m-27.422 0c-1.75 0-2.526-.557-2.526-1.81 0-1.233 1.154-1.889 3.6-1.889h3.32a4.121 4.121 0 0 1-4.394 3.7m66.16-.159a4.276 4.276 0 1 1 4.2-4.3 4.2 4.2 0 0 1-4.2 4.3m-15.094-.438a4.077 4.077 0 0 1 0-8.153 4.077 4.077 0 1 1 0 8.153m-83.759-3.679c0 2.546-1.451 4.2-3.659 4.2-2.048 0-3.221-1.412-3.221-3.818v-6.9h-2.386v7.238c0 3.46 2.088 5.688 5.409 5.688a4.848 4.848 0 0 0 3.9-1.89v1.691h2.347V25.183H52.89zm71.649-6.522h-2.327V37.91h2.367v-6.98c0-2.367 1.233-3.639 3.5-3.639a7.4 7.4 0 0 1 1.491.159v-2.207a6.979 6.979 0 0 0-1.372-.179 4.378 4.378 0 0 0-3.659 1.67zm-49.536 0h-2.326V37.91h2.366v-6.98c0-2.367 1.233-3.639 3.5-3.639a7.415 7.415 0 0 1 1.492.159v-2.207a7 7 0 0 0-1.373-.179A4.378 4.378 0 0 0 75 26.734zm76.74-.2a6.563 6.563 0 1 0 6.622 6.542 6.59 6.59 0 0 0-6.622-6.542m-10.937 1.869a5.391 5.391 0 0 0-4.216-1.869 6.324 6.324 0 1 0 0 12.647 5.372 5.372 0 0 0 4.216-1.869v1.031c0 2.924-1.432 4.455-4.017 4.455a3.483 3.483 0 0 1-3.679-2.387l-2.386.418c.775 2.685 2.863 4.136 6.184 4.136 3.9 0 6.284-2.585 6.284-6.781V25.183h-2.386zm-26.548-1.869c-3.082 0-5.23 1.472-5.707 4.136l2.267.318c.477-1.571 1.451-2.267 3.42-2.267 1.989 0 3.2 1.015 3.2 2.784v.378h-3.52c-3.56 0-5.787 1.253-5.787 4.037 0 2.247 1.909 3.739 4.733 3.739a5.587 5.587 0 0 0 4.554-2.148v1.949h2.287v-8.293c0-2.625-2.168-4.633-5.449-4.633m-13.642 10.838a4.018 4.018 0 0 1-4.017-4.3 3.972 3.972 0 0 1 4.017-4.255 3.606 3.606 0 0 1 3.58 2.346l2.267-.5a5.877 5.877 0 0 0-5.847-4.136 6.563 6.563 0 0 0 0 13.125 6.065 6.065 0 0 0 5.966-4.236l-2.267-.517a3.775 3.775 0 0 1-3.7 2.466M86.83 24.978c-3.1 0-5.25 1.472-5.728 4.136l2.267.318c.478-1.571 1.472-2.267 3.441-2.267 1.988 0 3.181 1.015 3.181 2.784v.378h-3.5c-3.579 0-5.786 1.253-5.786 4.037 0 2.247 1.889 3.739 4.732 3.739a5.544 5.544 0 0 0 4.534-2.148v1.949h2.287v-8.293c0-2.625-2.147-4.633-5.428-4.633m-22.412-3.261v3.46h-2.565v2.148h2.565v6.542c0 2.685 1.333 4.236 3.858 4.236a8.257 8.257 0 0 0 2.486-.418v-2.148a6.9 6.9 0 0 1-2.208.358c-1.193 0-1.769-.656-1.769-2.048v-6.522h4.017v-2.148h-4.017v-3.46zm-4.315 0h-2.366V37.91h2.366z" fill="#f5f5f5"/><g data-name="Group 155"><g data-name="Group 154"><g data-name="Group 153"><path data-name="Path 118" d="M38.055 4.988l-.019-.107-1.837.576.014.082a48.89 48.89 0 0 1 .169 12.638c-.463 4.1-1.649 9.872-4.673 14.059a12.147 12.147 0 0 1-8.328 5.22l-.038.006c-6.066 1.13-11.142.269-15.086-2.559a15.941 15.941 0 0 1-6.356-10.3l-.012-.08L0 24.471l.01.107A17.118 17.118 0 0 0 7.144 36.46a19.05 19.05 0 0 0 11.353 3.385 28.5 28.5 0 0 0 5.174-.5 14 14 0 0 0 9.587-5.99c3.266-4.523 4.534-10.634 5.022-14.963a50.117 50.117 0 0 0-.225-13.404z" fill="#53d698"/><path data-name="Path 119" d="M31.324.092L31.296 0l-1.827.556.028.092a70.431 70.431 0 0 1 2.815 16.184c.337 6.584-.5 11.947-2.416 15.508a9.818 9.818 0 0 1-7.1 5.11 9.678 9.678 0 0 1-7.6-1.984c-3.7-2.833-5.433-9.413-5.161-19.557v-.1l-2.021-.051v.094c-.713 15.855 4.816 20.323 5.931 21.057l.111.089c1.914 1.614 3.3 2.781 6.127 2.781 5.268-.224 9.206-2.485 11.388-6.537 4.977-9.228 2.014-25.72-.247-33.15z" fill="#f5f5f5"/><path data-name="Path 120" d="M29.9 16.566a72.868 72.868 0 0 0-2.932-12.615l-.086-.267-1.822.571.092.287c1.529 4.694 6.11 20.737.856 30.1-2.455 3.874-7.969 4.061-11.883 2-2.822-1.484-5.056-4.206-6.64-8.091a28.014 28.014 0 0 1-1.974-8.77v-.088l-1.907-.072v.1c.148 4.763 2.352 14.781 9.634 18.61a13.387 13.387 0 0 0 6.117 1.508 9.462 9.462 0 0 0 8.282-4.2l.023-.038c2.577-4.579 3.331-10.982 2.24-19.035z" fill="#00186d"/></g></g></g></svg>